<svg width="160" height="90" viewBox="0 0 160 90" fill="none" xmlns="http://www.w3.org/2000/svg">
<rect width="160" height="90" rx="16" fill="white"/>
<g clip-path="url(#clip0_2043:604)">
<path d="M59.7892 51.2616C59.6372 50.8959 59.4946 50.5116 59.3426 50.1834L58.6393 48.6178L58.6107 48.5897C56.5199 44.0897 54.2864 39.5147 51.9199 35.0147L51.8249 34.8272C51.5873 34.3866 51.3497 33.8991 51.1026 33.4491C50.7984 32.9147 50.5038 32.3428 50.0191 31.7991C49.5466 31.2301 48.952 30.7717 48.2782 30.457C47.6043 30.1422 46.868 29.979 46.1224 29.979C45.3769 29.979 44.6406 30.1422 43.9667 30.457C43.2929 30.7717 42.6982 31.2301 42.2258 31.7991C41.7791 32.3428 41.4464 32.9147 41.1423 33.4491C40.9047 33.9366 40.6671 34.4147 40.42 34.8553L40.325 35.0428C37.9965 39.5428 35.725 44.1178 33.6341 48.6178L33.5771 48.6741C33.368 49.1616 33.1209 49.6678 32.8833 50.2116C32.7312 50.5397 32.5792 50.8959 32.4271 51.2897C32.0166 52.3207 31.8855 53.4395 32.0467 54.5358C32.208 55.632 32.6561 56.6679 33.3468 57.5413C34.0375 58.4147 34.947 59.0956 35.9856 59.5167C37.0243 59.9378 38.1563 60.0847 39.27 59.9428C40.3378 59.8042 41.3659 59.4533 42.2923 58.9116C43.5278 58.2272 44.7158 57.2334 46.0464 55.7991C47.377 57.2334 48.5935 58.2272 49.8005 58.9209C50.9612 59.593 52.2757 59.9639 53.6211 59.9991C55.1792 60.0054 56.6869 59.4556 57.8661 58.451C59.0452 57.4464 59.8161 56.0549 60.0363 54.5334C60.2909 53.4401 60.2048 52.2964 59.7892 51.2522V51.2616ZM46.1414 52.8178C44.5067 50.7553 43.4423 48.8616 43.0811 47.2397C42.9315 46.6387 42.8993 46.0151 42.9861 45.4022C43.0526 44.9241 43.2332 44.5022 43.4803 44.1459C44.0506 43.3303 45.0485 42.8241 46.1414 42.8241C46.6605 42.8084 47.1754 42.9202 47.6398 43.1492C48.1043 43.3783 48.5038 43.7176 48.8026 44.1366C49.0497 44.5116 49.2303 44.9241 49.2873 45.4022C49.3823 45.9459 49.3443 46.5741 49.1922 47.2397C48.8311 48.8334 47.7666 50.7459 46.1414 52.8178ZM58.2496 54.2053C58.1416 54.9778 57.8303 55.7088 57.3467 56.3256C56.8632 56.9425 56.2242 57.4236 55.4934 57.7209C54.7711 58.0209 53.9728 58.1053 53.1934 58.0209C52.4331 57.9272 51.6728 57.6834 50.8935 57.2334C49.5995 56.4445 48.436 55.4644 47.4435 54.3272C49.4393 51.8897 50.6464 49.6678 51.1026 47.6897C51.3211 46.7522 51.3497 45.9084 51.2546 45.1303C51.1359 44.3928 50.8571 43.6892 50.4373 43.0678C49.9579 42.394 49.318 41.8467 48.5739 41.474C47.8298 41.1012 47.0043 40.9146 46.17 40.9303C44.4117 40.9303 42.8435 41.7366 41.8931 43.0584C41.4653 43.6783 41.1888 44.3874 41.0853 45.1303C40.9617 45.9178 40.9903 46.7897 41.2374 47.6897C41.6936 49.6678 42.9291 51.9178 44.8964 54.3459C43.9208 55.5048 42.7545 56.4936 41.4464 57.2709C40.6576 57.7209 39.9068 57.9553 39.1465 58.0491C37.9641 58.1985 36.7697 57.8815 35.8229 57.167C34.8761 56.4525 34.2535 55.3983 34.0903 54.2334C33.9953 53.4834 34.0618 52.7334 34.3659 51.8897C34.461 51.5897 34.6035 51.2897 34.7556 50.9334C34.9647 50.4459 35.2118 49.9397 35.4494 49.4334L35.4874 49.3678C37.5403 44.8959 39.7832 40.3303 42.1117 35.8584L42.2068 35.6709C42.4444 35.2209 42.682 34.7428 42.9291 34.2928C43.1762 33.8147 43.4423 33.3553 43.7844 32.9803C44.0806 32.6316 44.4507 32.3511 44.8686 32.1587C45.2865 31.9663 45.742 31.8666 46.2032 31.8666C46.6644 31.8666 47.12 31.9663 47.5379 32.1587C47.9558 32.3511 48.3258 32.6316 48.622 32.9803C48.9546 33.3553 49.2303 33.8147 49.4774 34.2928C49.715 34.7428 49.9526 35.2303 50.1997 35.6709L50.2947 35.8584C52.6137 40.3303 54.8566 44.8959 56.9475 49.3678L56.976 49.3959C57.2232 49.8834 57.4322 50.4272 57.6698 50.8959C57.8219 51.2616 57.974 51.5522 58.069 51.8616C58.2496 52.7053 58.3446 53.4553 58.2496 54.2053ZM71.4792 52.6116C70.763 52.6219 70.0537 52.473 69.4038 52.176C68.7539 51.879 68.1802 51.4415 67.7251 50.8959C66.7025 49.7334 66.1598 48.2344 66.2045 46.6959C66.1888 45.1239 66.7491 43.5992 67.7821 42.4022C68.26 41.8496 68.8549 41.4072 69.5248 41.1059C70.1948 40.8046 70.9235 40.6519 71.6598 40.6584C72.3526 40.6397 73.0388 40.7951 73.6539 41.11C74.2691 41.4249 74.7929 41.8889 75.1763 42.4584L75.2713 40.9866H78.0465V52.3116H75.2618L75.1668 50.6616C74.7716 51.2697 74.2253 51.7681 73.5799 52.1093C72.9345 52.4506 72.2114 52.6235 71.4792 52.6116ZM72.2015 49.9116C72.7527 49.9116 73.2375 49.7616 73.6936 49.4897C74.1118 49.1897 74.454 48.7959 74.7201 48.3178C74.9577 47.8397 75.0812 47.2678 75.0812 46.6303C75.1183 46.0766 75.009 45.5229 74.7641 45.0234C74.5192 44.5238 74.1471 44.0955 73.6841 43.7803C73.2393 43.5069 72.7256 43.362 72.2015 43.362C71.6774 43.362 71.1637 43.5069 70.7189 43.7803C70.3007 44.0803 69.9586 44.4741 69.6924 44.9522C69.4411 45.4795 69.3175 46.0572 69.3313 46.6397C69.2942 47.1934 69.4035 47.7471 69.6484 48.2466C69.8933 48.7462 70.2654 49.1745 70.7284 49.4897C71.1751 49.7616 71.6598 49.9116 72.2015 49.9116ZM82.7985 37.9303C82.7985 38.2584 82.7415 38.5584 82.5894 38.8022C82.4374 39.0366 82.2283 39.2522 81.9527 39.4022C81.677 39.5522 81.3824 39.6084 81.0783 39.6084C80.7742 39.6084 80.47 39.5522 80.1944 39.4022C79.9337 39.259 79.7145 39.0525 79.5576 38.8022C79.4105 38.5351 79.3383 38.2341 79.3485 37.9303C79.3485 37.5928 79.4151 37.2928 79.5576 37.0584C79.7097 36.7772 79.9283 36.6084 80.1944 36.4584C80.47 36.3084 80.7646 36.2428 81.0783 36.2428C81.3808 36.2359 81.68 36.3066 81.9465 36.4479C82.213 36.5893 82.4378 36.7964 82.5989 37.0491C82.7372 37.3224 82.8058 37.6249 82.7985 37.9303ZM79.5671 52.2741V40.9678H82.5894V52.2928H79.5576L79.5671 52.2741ZM90.6679 43.9303V43.9678C90.5253 43.9022 90.3352 43.8741 90.1927 43.8459C90.0026 43.8084 89.8505 43.8084 89.6699 43.8084C88.8241 43.8084 88.1873 44.0522 87.7691 44.5584C87.3129 45.0741 87.1038 45.7959 87.1038 46.7241V52.2834H84.0721V40.9584H86.8567L86.9518 42.6741C87.2559 42.0741 87.6171 41.6241 88.1303 41.2866C88.6408 40.9586 89.2418 40.7949 89.8505 40.8178C90.0691 40.8178 90.2782 40.8366 90.4588 40.8741C90.5538 40.9022 90.6108 40.9022 90.6679 40.9303V43.9303ZM91.8844 52.2741V36.3178H94.9067V42.4116C95.3343 41.8678 95.819 41.4459 96.4273 41.1178C97.3903 40.6521 98.4842 40.52 99.5326 40.7428C100.581 40.9656 101.523 41.5304 102.206 42.3459C103.231 43.5109 103.773 45.0136 103.726 46.5553C103.742 48.1273 103.182 49.652 102.149 50.8491C101.671 51.4016 101.076 51.8441 100.406 52.1454C99.7361 52.4466 99.0074 52.5994 98.2711 52.5928C97.5783 52.6115 96.8921 52.4561 96.2769 52.1412C95.6618 51.8264 95.1379 51.3623 94.7546 50.7928L94.6596 52.2647L91.8844 52.2928V52.2741ZM97.7294 49.9116C98.2711 49.9116 98.7558 49.7616 99.212 49.4897C99.6302 49.1897 99.9723 48.7959 100.238 48.3178C100.486 47.8397 100.6 47.2678 100.6 46.6303C100.6 46.0022 100.486 45.4303 100.238 44.9522C99.9888 44.4912 99.6382 44.0908 99.212 43.7803C98.7671 43.5069 98.2535 43.362 97.7294 43.362C97.2052 43.362 96.6916 43.5069 96.2467 43.7803C95.819 44.0803 95.4864 44.4741 95.2108 44.9522C94.9595 45.4795 94.8358 46.0572 94.8496 46.6397C94.8126 47.1934 94.9218 47.7471 95.1667 48.2466C95.4116 48.7462 95.7837 49.1745 96.2467 49.4897C96.6934 49.7616 97.1781 49.9116 97.7294 49.9116ZM104.867 52.2834V40.9584H107.652L107.747 42.4303C108.097 41.8661 108.593 41.4044 109.184 41.0929C109.776 40.7813 110.441 40.6314 111.111 40.6584C111.877 40.6454 112.63 40.8554 113.276 41.2623C113.922 41.6692 114.431 42.2548 114.742 42.9459C115.074 43.6584 115.255 44.5397 115.255 45.5241V52.3116H112.223V45.9178C112.223 45.1303 112.042 44.5116 111.681 44.0522C111.32 43.6022 110.826 43.3584 110.199 43.3584C109.742 43.3584 109.343 43.4522 108.992 43.6584C108.659 43.8741 108.383 44.1459 108.174 44.5303C107.963 44.9189 107.858 45.3551 107.87 45.7959V52.2834H104.867ZM116.766 52.2834V36.3084H119.798V42.4022C120.208 41.8554 120.743 41.4106 121.358 41.103C121.973 40.7954 122.653 40.6336 123.343 40.6303C124.059 40.62 124.768 40.7688 125.418 41.0658C126.068 41.3628 126.642 41.8003 127.097 42.3459C128.114 43.5108 128.653 45.009 128.608 46.5459C128.624 48.1181 128.064 49.6431 127.03 50.8397C126.552 51.3922 125.958 51.8347 125.288 52.136C124.618 52.4373 123.889 52.59 123.153 52.5834C122.46 52.6021 121.774 52.4468 121.159 52.1319C120.543 51.817 120.019 51.353 119.636 50.7834L119.551 52.2553L116.766 52.2834ZM122.639 49.9116C123.191 49.9116 123.675 49.7616 124.122 49.4897C124.55 49.1897 124.882 48.7959 125.158 48.3178C125.396 47.8397 125.519 47.2678 125.519 46.6303C125.556 46.0766 125.447 45.5229 125.202 45.0234C124.957 44.5238 124.585 44.0955 124.122 43.7803C123.677 43.5069 123.164 43.362 122.639 43.362C122.115 43.362 121.602 43.5069 121.157 43.7803C120.739 44.0803 120.396 44.4741 120.13 44.9522C119.865 45.4748 119.741 46.0559 119.769 46.6397C119.732 47.1934 119.841 47.7471 120.086 48.2466C120.331 48.7462 120.703 49.1745 121.166 49.4897C121.613 49.7616 122.069 49.9116 122.639 49.9116Z" fill="#FF385C"/>
</g>
<defs>
<clipPath id="clip0_2043:604">
<rect width="96.9412" height="30" fill="white" transform="translate(32 30)"/>
</clipPath>
</defs>
</svg>
