<svg width="160" height="90" viewBox="0 0 160 90" fill="none" xmlns="http://www.w3.org/2000/svg">
<rect width="160" height="90" rx="16" fill="white"/>
<g clip-path="url(#clip0_2043:619)">
<path d="M102.931 58.2207L110.78 49.5615L102.931 40.901H111.212L115.1 45.1077L118.843 40.901H126.836L119.024 49.5257L126.943 58.2207H118.627L114.775 53.9795L110.959 58.2207H102.931Z" fill="#FF6600"/>
<path d="M102.931 37.0185H94.041V40.901H102.931V46.7522H94.041V52.1229H102.931V58.2208H87.5072V30.9375H102.931V37.0185Z" fill="#FF6600"/>
<path d="M81.0009 30.9375V42.1031H80.9293C79.4889 40.4775 77.6892 39.9126 75.601 39.9126C71.3236 39.9126 68.1015 42.7677 66.9704 46.5425C65.6806 42.3832 62.3542 39.8346 57.4216 39.8346C53.4159 39.8346 50.2527 41.6001 48.6019 44.4769V40.9014H40.322V37.0193H49.3577V30.9375H32.9412V58.2212H40.322V46.7522H47.6788C47.4594 47.5947 47.3424 48.4967 47.3424 49.4486C47.3424 55.1399 51.7704 59.1332 57.4216 59.1332C62.1737 59.1332 65.3054 56.9427 66.9618 52.9489H60.6367C59.7811 54.1487 59.1321 54.505 57.4216 54.505C55.4382 54.505 53.7281 52.8059 53.7281 50.7917H66.6075C67.166 55.3122 70.7523 59.2108 75.6739 59.2108C77.7968 59.2108 79.7406 58.1854 80.9293 56.4541H81.0009V58.2204H87.5073V30.9375H81.0009ZM53.9335 46.8337C54.3439 45.1008 55.7127 43.9682 57.4216 43.9682C59.3027 43.9682 60.6019 45.0659 60.9436 46.8337C61.0877 46.8337 53.9335 46.8337 53.9335 46.8337ZM77.0525 54.0667C74.6541 54.0667 73.1638 51.8725 73.1638 49.5816C73.1638 47.1327 74.4602 44.7778 77.0525 44.7778C79.7406 44.7778 80.8115 47.1327 80.8115 49.5816C80.8111 51.9039 79.6763 54.0667 77.0525 54.0667Z" fill="#652C8F"/>
</g>
<defs>
<clipPath id="clip0_2043:619">
<rect width="94.1176" height="28.125" fill="white" transform="translate(32.9412 30.9375)"/>
</clipPath>
</defs>
</svg>
