<svg width="160" height="90" viewBox="0 0 160 90" fill="none" xmlns="http://www.w3.org/2000/svg">
<rect width="160" height="90" rx="16" fill="white"/>
<g clip-path="url(#clip0_2043:627)">
<path d="M63.1186 46.8518L62.4342 48.7791H62.3772C62.2632 48.3445 62.054 47.6831 61.7118 46.8895L58.0428 37.7253H54.4498V52.3314H56.8261V43.3183C56.8261 42.7515 56.8261 42.109 56.8071 41.3154C56.7881 40.9186 56.7501 40.6163 56.7311 40.3895H56.7881C56.9022 40.9564 57.0353 41.3721 57.1303 41.6366L61.5407 52.2936H63.2137L67.5861 41.5422C67.6811 41.2965 67.7762 40.8052 67.8713 40.3895H67.9283C67.8713 41.4666 67.8332 42.4302 67.8142 43.016V52.2747H70.3426V37.6875H66.8827L63.1186 46.8518ZM72.7379 41.8067H75.2093V52.2747H72.7379V41.8067ZM73.9926 37.3852C73.5744 37.3852 73.2322 37.5363 72.9471 37.8009C72.6619 38.0654 72.5098 38.4055 72.5098 38.8212C72.5098 39.218 72.6619 39.5581 72.9471 39.8227C73.2322 40.0872 73.5744 40.2195 73.9926 40.2195C74.4109 40.2195 74.7721 40.0683 75.0382 39.8227C75.3234 39.5581 75.4755 39.218 75.4755 38.8212C75.4755 38.4244 75.3234 38.0843 75.0382 37.8009C74.7911 37.5363 74.4299 37.3852 73.9926 37.3852ZM83.9732 41.7122C83.5169 41.6177 83.0416 41.5611 82.5854 41.5611C81.4638 41.5611 80.4372 41.8067 79.5817 42.298C78.7263 42.7893 78.0419 43.4695 77.6046 44.3198C77.1484 45.189 76.9203 46.1904 76.9203 47.343C76.9203 48.3445 77.1484 49.2326 77.5856 50.0451C78.0229 50.8387 78.6312 51.4811 79.4487 51.9157C80.2281 52.3503 81.1406 52.577 82.1672 52.577C83.3458 52.577 84.3534 52.3314 85.1518 51.8779L85.1708 51.859V49.5916L85.0758 49.6672C84.7146 49.9317 84.2963 50.1584 83.8781 50.2907C83.4409 50.4419 83.0416 50.5175 82.6995 50.5175C81.7109 50.5175 80.9315 50.234 80.3802 49.6105C79.8099 49.0058 79.5247 48.1744 79.5247 47.1352C79.5247 46.0581 79.8099 45.2079 80.3992 44.5843C80.9885 43.9608 81.7679 43.6395 82.7185 43.6395C83.5169 43.6395 84.3344 43.9041 85.0758 44.4331L85.1708 44.5087V42.109L85.1518 42.0901C84.8286 41.9579 84.4674 41.8067 83.9732 41.7122ZM92.1287 41.6366C91.5203 41.6366 90.95 41.8256 90.4557 42.2224C90.0375 42.5625 89.7524 43.0538 89.5052 43.6395H89.4862V41.8067H87.0148V52.2747H89.4862V46.9273C89.4862 46.0204 89.6763 45.2645 90.0945 44.7166C90.5128 44.1497 91.0451 43.8663 91.6914 43.8663C91.9196 43.8663 92.1477 43.923 92.4328 43.9608C92.699 44.0363 92.8891 44.1119 93.0222 44.2064L93.1172 44.282V41.8256L93.0602 41.8067C92.8891 41.6933 92.5469 41.6366 92.1287 41.6366ZM98.8584 41.58C97.1284 41.58 95.7407 42.0901 94.7711 43.0916C93.7826 44.093 93.3073 45.4724 93.3073 47.2108C93.3073 48.8358 93.8016 50.1584 94.7521 51.1221C95.7027 52.0669 96.9954 52.5581 98.6113 52.5581C100.303 52.5581 101.653 52.048 102.622 51.0276C103.611 50.0073 104.086 48.6468 104.086 46.9651C104.086 45.3023 103.63 43.9797 102.699 43.016C101.805 42.0523 100.493 41.58 98.8584 41.58ZM100.835 49.6294C100.379 50.2151 99.6568 50.4986 98.7633 50.4986C97.8699 50.4986 97.1474 50.2151 96.6342 49.5916C96.1209 49.0058 95.8737 48.1555 95.8737 47.0785C95.8737 45.9637 96.1399 45.1134 96.6342 44.5087C97.1474 43.9041 97.8508 43.6018 98.7443 43.6018C99.6188 43.6018 100.303 43.8852 100.797 44.4709C101.292 45.0567 101.558 45.907 101.558 47.0218C101.52 48.1555 101.311 49.0436 100.835 49.6294ZM109.599 46.1526C108.82 45.8314 108.326 45.5858 108.098 45.3779C107.907 45.189 107.812 44.9244 107.812 44.5843C107.812 44.3009 107.926 44.0174 108.212 43.8285C108.497 43.6395 108.82 43.5451 109.295 43.5451C109.713 43.5451 110.151 43.6206 110.569 43.734C110.987 43.8474 111.367 44.0175 111.671 44.2442L111.767 44.3198V42.0145L111.71 41.9956C111.424 41.8823 111.044 41.7689 110.588 41.6744C110.132 41.5988 109.713 41.5611 109.371 41.5611C108.193 41.5611 107.223 41.8445 106.463 42.468C105.702 43.0538 105.341 43.8474 105.341 44.7733C105.341 45.2645 105.417 45.6991 105.588 46.0581C105.759 46.4172 106.006 46.7573 106.349 47.0407C106.691 47.3052 107.185 47.6076 107.869 47.891C108.44 48.1366 108.877 48.3256 109.143 48.4768C109.409 48.6279 109.58 48.798 109.713 48.9302C109.808 49.0814 109.865 49.2704 109.865 49.516C109.865 50.2151 109.333 50.5552 108.25 50.5552C107.831 50.5552 107.394 50.4797 106.881 50.3096C106.368 50.1395 105.892 49.8939 105.493 49.6105L105.398 49.5349V51.9346L105.455 51.9535C105.816 52.1236 106.253 52.2369 106.786 52.3692C107.318 52.4637 107.793 52.5393 108.212 52.5393C109.485 52.5393 110.531 52.2558 111.272 51.6323C112.033 51.0276 112.432 50.2529 112.432 49.2515C112.432 48.5523 112.242 47.9288 111.824 47.4564C111.272 47.0029 110.588 46.5305 109.599 46.1526ZM118.953 41.58C117.223 41.58 115.835 42.0901 114.865 43.0916C113.896 44.093 113.401 45.4724 113.401 47.2108C113.401 48.8358 113.896 50.1584 114.846 51.1221C115.797 52.0669 117.089 52.5581 118.705 52.5581C120.397 52.5581 121.747 52.048 122.717 51.0276C123.705 50.0073 124.18 48.6468 124.18 46.9651C124.18 45.3023 123.724 43.9797 122.793 43.016C121.899 42.0523 120.587 41.58 118.953 41.58ZM120.911 49.6294C120.454 50.2151 119.732 50.4986 118.838 50.4986C117.926 50.4986 117.223 50.2151 116.709 49.5916C116.196 49.0058 115.949 48.1555 115.949 47.0785C115.949 45.9637 116.215 45.1134 116.709 44.5087C117.223 43.9041 117.926 43.6018 118.819 43.6018C119.675 43.6018 120.378 43.8852 120.873 44.4709C121.367 45.0567 121.633 45.907 121.633 47.0218C121.633 48.1555 121.386 49.0436 120.911 49.6294ZM137.393 43.8285V41.8067H134.902V38.7079L134.826 38.7268L132.469 39.4259L132.412 39.4448V41.8067H128.686V40.484C128.686 39.8794 128.838 39.407 129.104 39.1047C129.37 38.8023 129.77 38.6512 130.264 38.6512C130.606 38.6512 130.967 38.7268 131.366 38.8968L131.461 38.9535V36.8183L131.404 36.7994C131.062 36.6861 130.606 36.6105 130.017 36.6105C129.275 36.6105 128.629 36.7805 128.04 37.064C127.45 37.3852 127.013 37.8198 126.69 38.4055C126.367 38.9724 126.196 39.6148 126.196 40.3518V41.8067H124.466V43.8096H126.196V52.2747H128.686V43.8285H132.412V49.2137C132.412 51.4244 133.458 52.5393 135.549 52.5393C135.891 52.5393 136.252 52.4826 136.594 52.4259C136.955 52.3503 137.222 52.2558 137.374 52.1802L137.393 52.1613V50.1395L137.298 50.2151C137.146 50.3096 137.013 50.3852 136.784 50.4419C136.594 50.4986 136.423 50.5175 136.29 50.5175C135.796 50.5175 135.454 50.4041 135.207 50.1206C134.978 49.8561 134.864 49.4215 134.864 48.7791V43.8285H137.393Z" fill="#737373"/>
<path d="M22.5882 32.8125H34.2417V44.3953H22.5882V32.8125Z" fill="#F25022"/>
<path d="M35.4583 32.8125H47.1117V44.3953H35.4583V32.8125Z" fill="#7FBA00"/>
<path d="M22.5882 45.6046H34.2417V57.1875H22.5882V45.6046Z" fill="#00A4EF"/>
<path d="M35.4583 45.6046H47.1117V57.1875H35.4583V45.6046Z" fill="#FFB900"/>
</g>
<defs>
<clipPath id="clip0_2043:627">
<rect width="114.824" height="24.375" fill="white" transform="translate(22.5882 32.8125)"/>
</clipPath>
</defs>
</svg>
