<svg width="160" height="90" viewBox="0 0 160 90" fill="none" xmlns="http://www.w3.org/2000/svg">
<rect width="160" height="90" rx="16" fill="white"/>
<g clip-path="url(#clip0_2043:645)">
<path fill-rule="evenodd" clip-rule="evenodd" d="M115.177 43.9134L109.307 54.0705L104.299 54.0904L115.177 34.9724L126.016 54.0904H120.928L115.177 43.9124V43.9134ZM99.3705 49.6688H104.98L102.376 54.0904H95.0642L95.0841 48.7066V35.09H99.3914L99.3715 49.6688H99.3705ZM83.9861 35.091C89.3348 35.1109 93.6619 39.3542 93.642 44.5997C93.6222 49.8262 89.2951 54.0705 83.9454 54.0705C78.6166 54.0506 74.2895 49.8072 74.2895 44.5608C74.3093 39.3343 78.6365 35.091 83.9861 35.091ZM83.9663 49.6499C86.8305 49.6499 89.1334 47.3897 89.1334 44.5997C89.1542 41.8106 86.8305 39.5305 83.9861 39.5305C81.1407 39.5106 78.817 41.7907 78.817 44.5807C78.7971 47.3698 81.1209 49.6499 83.9653 49.6499H83.9663ZM66.3166 43.0906C66.2571 42.3037 66.0558 41.2628 65.7552 40.2617C65.1369 38.1939 64.0619 36.293 62.6103 34.7005C61.8486 33.8757 60.9878 33.1087 59.7044 32.2053C58.7261 31.7204 57.7642 31.2028 56.8203 30.6534C56.1995 30.2997 55.4576 29.8664 54.4768 29.5527C53.3137 29.277 52.1249 29.1257 50.9302 29.1014C49.7698 29.0616 48.6064 29.1612 47.4847 29.3764C46.3025 29.5726 45.3207 29.8864 44.0185 30.2011C41.0729 31.4781 38.7898 33.4036 36.8261 35.9586C29.9749 45.5659 36.1656 59.0251 47.6047 60.6159C49.4881 60.8719 51.3715 60.7732 53.1537 60.3609L54.4163 60.0272C54.4559 60.0072 54.5164 59.9873 54.5561 59.9873L55.9991 59.4375C56.0785 59.3976 56.139 59.3777 56.2193 59.3389L56.8203 59.0639C57.9735 58.4924 59.056 57.787 60.0456 56.9622C59.1448 57.7842 58.1651 58.5146 57.1208 59.1426L57.1803 59.1825C57.3817 59.1227 57.5612 59.0639 57.7615 59.0251C57.7615 59.0251 57.7615 59.3389 57.7219 59.2801C57.4015 59.5162 57.9024 59.3 58.543 58.9653C59.1847 58.6316 59.8056 58.2183 60.3659 57.7471C61.1881 57.0598 61.9091 56.3127 62.9307 55.0955C63.972 53.2677 65.2752 51.6759 65.8762 49.5343C66.0766 48.9645 66.2561 48.2972 66.3771 47.6089C66.4961 46.9216 66.5774 46.2143 66.5774 45.4872C66.5576 44.76 66.4773 44.013 66.3166 43.0906ZM51.4915 59.2412C54.9974 58.6904 57.942 56.746 60.3461 54.0934C61.0076 53.1302 61.5283 52.2457 62.169 51.2835C62.9703 49.3182 62.9108 47.57 63.1707 46.3329C63.492 44.0917 62.7303 42.2847 62.0896 40.3593C61.1078 38.1191 59.8056 36.4496 57.5215 35.1527C51.7514 31.5767 43.8985 32.5778 40.1525 37.9228C40.1327 37.9228 40.0315 38.0603 39.8312 38.3352C40.092 37.2355 40.7535 36.5871 41.4141 35.9576C43.3778 34.3469 45.6618 33.0689 48.2662 32.4413C51.2118 32.1266 54.1356 32.4413 56.7598 33.7183C60.6873 35.9576 63.2917 39.4758 63.9522 43.6394V47.4913C63.131 53.7986 57.7219 58.5928 51.4915 59.2412ZM65.8961 44.8975C65.7552 35.6637 56.6002 29.4351 47.6851 30.6932C45.0807 31.3407 42.2352 32.6376 40.212 34.4455C39.2302 35.0929 38.77 36.2922 37.7881 37.2545C33.8607 43.0119 34.543 50.38 39.4305 54.8604C40.0574 55.4829 40.7269 56.0607 41.4339 56.5896C37.3478 54.1323 35.5041 50.4179 34.8634 45.9006C34.8634 44.2889 35.1837 42.6971 35.5239 41.0864C37.8089 34.0321 45.0003 28.9042 52.8344 30.2011C54.1366 30.5159 55.4388 30.8496 56.7618 31.1644C58.4042 31.8118 60.0267 32.775 61.3289 34.053C62.6311 35.329 63.613 36.9407 64.5949 38.5315C65.2554 39.8095 65.5767 41.4201 65.8971 42.6971C65.9566 43.4243 65.9566 44.1713 65.8971 44.8985L65.8961 44.8975Z" fill="black"/>
<path fill-rule="evenodd" clip-rule="evenodd" d="M57.7624 45.0359C57.7624 49.0053 54.4369 52.2277 50.33 52.2277C46.224 52.2277 42.8976 49.0053 42.8976 45.0359C42.8976 41.0675 46.223 37.8451 50.33 37.8451C54.4369 37.8451 57.7624 41.0675 57.7624 45.0369V45.0359Z" fill="white"/>
<path fill-rule="evenodd" clip-rule="evenodd" d="M57.803 43.8177C57.7029 43.2678 57.5422 42.8355 57.3825 42.2269C56.7409 40.8902 55.7997 39.8492 54.557 38.9647C49.9095 35.8808 43.5185 38.8472 42.8381 44.1135C42.5783 46.1963 43.3191 48.2005 44.6412 49.7335C44.2405 49.3201 43.8001 48.8888 43.4996 48.3967L43.46 48.4366C43.4996 48.5541 43.6603 48.6328 43.7 48.7503C43.7 48.7503 43.5393 48.7503 43.58 48.7304C43.46 48.5939 43.5601 48.8101 43.7396 49.1039C43.9003 49.3988 44.1007 49.6747 44.3407 49.9297C44.6818 50.3032 45.0418 50.6369 45.6429 51.0892C46.5255 51.5404 47.3061 52.1301 48.3276 52.405C48.6083 52.4847 48.9286 52.5624 49.25 52.6212C49.5901 52.6809 49.9105 52.7008 50.2715 52.7008C50.6117 52.7008 50.9727 52.661 51.413 52.5813C51.8671 52.5276 52.316 52.436 52.7549 52.3074C53.7354 52.011 54.6385 51.5008 55.4 50.8132C55.7808 50.4606 56.3223 50.0084 56.7418 49.4187C57.083 48.7513 57.1227 48.4166 57.2834 48.1218C57.443 47.827 57.6434 47.4933 57.7842 47.041C57.899 46.5045 57.966 45.9589 57.9845 45.4104C57.9647 44.8606 57.925 44.3297 57.804 43.8187L57.803 43.8177ZM53.0346 40.164C53.7159 40.5565 53.8161 40.6152 53.4551 40.3602C53.9768 40.4778 54.2971 40.7726 54.6175 41.0675C55.399 41.952 56.0397 42.9929 56.36 44.1912C56.5405 45.5469 56.3997 46.9026 55.8195 48.1019C54.7781 49.9287 53.1149 51.1469 51.1314 51.4806C50.9112 51.4806 50.6712 51.4806 50.45 51.5005C51.0114 51.4019 51.3724 51.0483 52.3939 50.6748C53.4948 50.2823 54.7375 48.4555 55.3395 47.3937C57.1019 44.505 55.0181 41.8335 53.0346 40.164ZM49.2688 51.5195C46.224 51.2057 43.8795 48.7105 43.5591 45.8218C43.8388 47.4335 44.8008 48.6706 46.103 49.7713C46.5642 50.0662 47.2446 50.4786 47.7058 50.7734C48.4873 51.0682 48.9475 51.383 49.7092 51.5205H49.2688V51.5195ZM57.4619 46.274C57.323 46.8836 57.1822 47.4723 57.0414 48.082C56.7409 48.829 56.3005 49.595 55.6995 50.2036C55.0985 50.8132 54.3368 51.2844 53.5761 51.7366C52.9751 52.0504 52.2134 52.2078 51.5925 52.3642C51.2315 52.404 50.811 52.2466 50.45 52.2277C54.8981 52.1092 57.9429 47.9644 57.2824 43.8575C56.961 42.6592 56.3203 41.6173 55.5388 40.5764C55.2185 40.1242 54.5966 39.8492 54.1364 39.397C51.3515 37.6489 47.6661 38.0025 45.5625 40.3015C45.2676 40.6036 44.9929 40.925 44.7403 41.2637C45.863 39.6132 47.6661 38.4547 49.8292 38.12C50.5908 38.1001 51.3724 38.2386 52.1331 38.376C55.4991 39.397 58.0034 42.6592 57.4619 46.275V46.274Z" fill="#D7DF23"/>
</g>
<defs>
<clipPath id="clip0_2043:645">
<rect width="92.2353" height="31.875" fill="white" transform="translate(33.8824 29.0625)"/>
</clipPath>
</defs>
</svg>
