<svg width="160" height="90" viewBox="0 0 160 90" fill="none" xmlns="http://www.w3.org/2000/svg">
<rect width="160" height="90" rx="16" fill="white"/>
<g clip-path="url(#clip0_2043:657)">
<path d="M105.472 58.725C112.981 58.725 119.091 52.5405 119.091 44.94C119.091 37.335 112.981 31.155 105.472 31.155C97.9613 31.155 91.8529 37.335 91.8529 44.94C91.8529 52.5405 97.9613 58.725 105.472 58.725ZM105.472 40.0245C108.148 40.0245 110.327 42.2295 110.327 44.9385C110.327 47.6475 108.146 49.8495 105.47 49.8495C102.793 49.8495 100.616 47.6475 100.616 44.937C100.616 42.225 102.794 40.0215 105.47 40.0215L105.472 40.0245ZM54.0896 58.725C61.5987 58.725 67.7086 52.5405 67.7086 44.94C67.7086 37.335 61.5987 31.155 54.0896 31.155C46.582 31.155 40.4706 37.335 40.4706 44.94C40.4706 52.5405 46.582 58.725 54.0896 58.725ZM54.0896 40.0245C56.7671 40.0245 58.945 42.2295 58.945 44.9385C58.945 47.6475 56.7671 49.8495 54.0896 49.8495C51.4135 49.8495 49.2372 47.6475 49.2372 44.937C49.2372 42.225 51.415 40.0215 54.0896 40.0215V40.0245ZM79.7733 39.714L75.5921 31.335H65.8022L74.9462 49.665V58.2945H84.6018V49.665L93.7458 31.335H83.9514L79.7748 39.714H79.7733Z" fill="#EE2E24"/>
</g>
<defs>
<clipPath id="clip0_2043:657">
<rect width="79.0588" height="30" fill="white" transform="translate(40.4706 30)"/>
</clipPath>
</defs>
</svg>
