<svg width="160" height="90" viewBox="0 0 160 90" fill="none" xmlns="http://www.w3.org/2000/svg">
<rect width="160" height="90" rx="16" fill="white"/>
<g clip-path="url(#clip0_2043:652)">
<path d="M63.7221 41.2118V42.6994H63.768C64.3075 41.903 65.2031 40.9649 67.1882 40.9649C68.7326 40.9649 69.9173 41.745 70.425 42.9232H70.4709C70.9046 42.3275 71.4017 41.8766 71.9588 41.5574C72.6182 41.1789 73.3516 40.9617 74.2754 40.9617C76.3663 40.9617 78.2175 42.3111 78.2175 45.7142V52.1684H75.03V46.1651C75.03 44.4405 74.4024 43.4433 73.0977 43.4433C72.1422 43.4433 71.4476 44.0423 71.1831 44.7795C71.0915 45.0329 71.0491 45.3785 71.0491 45.6681V52.1717H67.8617V45.9216C67.8617 44.457 67.2587 43.44 65.9717 43.44C64.9421 43.44 64.2969 44.197 64.0324 44.8453C63.9196 45.1218 63.8843 45.441 63.8843 45.7406V52.1684H60.6933V41.2118H63.7221ZM94.6697 41.2118V43.2787H94.7579C95.3432 41.6989 96.7324 40.9649 97.9524 40.9649C98.2592 40.9649 98.4284 40.988 98.6752 41.0341V43.904C98.3826 43.8645 98.1111 43.825 97.7303 43.825C96.3481 43.825 95.3855 44.5754 95.1422 45.7504C95.0893 45.994 95.0717 46.2573 95.0717 46.5601V52.1717H91.7996V41.2118H94.6697ZM103.118 37.5815V41.0308H105.882V43.8218H103.118V47.9391C103.118 49.2721 103.481 49.9171 104.56 49.9171C105.068 49.9171 105.442 49.8579 105.766 49.7822L105.808 52.096C105.375 52.2474 104.451 52.4119 103.513 52.4119C102.409 52.4119 101.489 52.0532 100.928 51.497C100.287 50.8617 99.9904 49.8217 99.9904 48.3406V37.5815H103.118ZM58.4719 52.1684H55.2986V37.5815H58.4719V52.1684ZM50.0096 48.2551C50.0096 48.4558 49.9919 48.6665 49.932 48.8475C49.6852 49.6078 48.8425 50.2496 47.7917 50.2496C46.9138 50.2496 46.2156 49.7855 46.2156 48.8014C46.2156 47.2973 47.9927 46.8793 50.0131 46.8892V48.2551H50.0096ZM53.1794 45.6319C53.1794 43.147 52.0441 40.9649 48.2043 40.9649C46.2332 40.9649 44.6677 41.4817 43.8144 41.9424L44.4385 43.9369C45.2178 43.4762 46.4624 43.0977 47.6401 43.0977C49.59 43.0944 49.9073 44.1278 49.9073 44.7894V44.9474C45.6585 44.9408 42.9752 46.3132 42.9752 49.1108C42.9752 50.819 44.3398 52.4185 46.7163 52.4185C48.1796 52.4185 49.3996 51.8754 50.133 51.0033H50.2035C50.2035 51.0033 50.6901 52.8957 53.3628 52.1717C53.2218 51.3818 53.1759 50.5425 53.1759 49.5321V45.6319H53.1794ZM27.0342 37.5815C27.3622 39.1251 28.293 43.6078 28.293 43.6078C28.6844 45.4509 29.0441 47.3829 29.3156 48.91H29.3649C29.6294 47.2874 30.0454 45.7504 30.4897 43.8481L32.0588 37.5815H35.5319L36.9987 44.0094C37.383 45.7965 37.6898 47.1755 37.9331 48.8376H37.9789C38.2434 47.1591 38.5889 45.7241 38.9662 43.8876L40.3766 37.5815H43.7086L39.5797 52.1684C36.9493 52.7048 35.9409 51.7175 35.5812 50.1508C35.2216 48.5809 34.5164 45.5957 34.5164 45.5957C34.1532 43.96 33.8711 42.808 33.6737 41.1295H33.6243C33.3422 42.7916 33.0461 43.9567 32.6088 45.5924L30.8776 52.1717C28.1908 52.6719 27.2599 51.9314 26.7451 49.9204C26.3008 48.1991 23.5294 37.5848 23.5294 37.5848H27.0342V37.5815ZM86.5106 48.2551C86.5106 48.4558 86.493 48.6665 86.433 48.8475C86.1862 49.6078 85.3435 50.2496 84.2927 50.2496C83.4148 50.2496 82.7166 49.7855 82.7166 48.8014C82.7166 47.2973 84.4937 46.8793 86.5141 46.8892V48.2551H86.5106ZM89.6805 45.6319C89.6805 43.147 88.5451 40.9649 84.7053 40.9649C82.7343 40.9649 81.1687 41.4817 80.3154 41.9424L80.9395 43.9369C81.7188 43.4762 82.9634 43.0977 84.1411 43.0977C86.0875 43.0944 86.4083 44.1278 86.4083 44.7894V44.9474C82.1631 44.9408 79.4798 46.3132 79.4798 49.1108C79.4798 50.819 80.8479 52.4185 83.2208 52.4185C84.6806 52.4185 85.9041 51.8754 86.634 51.0033H86.708C86.708 51.0033 87.1946 52.8957 89.8673 52.1717C89.7263 51.3818 89.6805 50.5425 89.6805 49.5321V45.6319Z" fill="#041E42"/>
<path d="M118.746 47.1445C119.059 47.6772 119.038 48.2718 118.704 48.5433L112.933 52.499C112.332 52.8393 111.432 52.4268 110.923 51.5642C110.409 50.6982 110.501 49.7324 111.102 49.3922L117.491 46.4847C117.892 46.3335 118.433 46.6118 118.746 47.1445ZM126.341 47.1445C126.658 46.6118 127.195 46.3369 127.596 46.4812L133.989 49.3887C134.59 49.729 134.678 50.6947 134.169 51.5608C133.655 52.4234 132.752 52.8324 132.155 52.4956L126.384 48.5399C126.053 48.2718 126.029 47.6738 126.341 47.1445ZM122.542 49.2891C123.171 49.2891 123.688 49.6053 123.758 50.0211L124.38 56.8878C124.38 57.5682 123.568 58.125 122.546 58.125C121.526 58.125 120.711 57.5682 120.711 56.8878L121.329 50.0211C121.4 49.6053 121.916 49.2891 122.542 49.2891ZM126.384 41.4601L132.155 37.501C132.752 37.1607 133.655 37.5697 134.169 38.4358C134.678 39.3018 134.59 40.2676 133.989 40.6078L127.596 43.5188C127.195 43.6631 126.654 43.3882 126.341 42.8555C126.029 42.3228 126.053 41.7282 126.384 41.4601ZM117.491 43.5188L111.102 40.6078C110.504 40.2676 110.413 39.3018 110.923 38.4358C111.432 37.5697 112.335 37.1607 112.933 37.501L118.704 41.4601C119.038 41.7248 119.059 42.3228 118.746 42.8555C118.433 43.3882 117.892 43.6631 117.491 43.5188ZM121.329 39.9789L120.711 33.1122C120.711 32.4318 121.523 31.875 122.546 31.875C123.568 31.875 124.38 32.4318 124.38 33.1122L123.758 39.9789C123.688 40.3913 123.171 40.7109 122.542 40.7109C121.916 40.7109 121.4 40.3913 121.329 39.9789ZM135.729 52.4715V52.2997H135.887C135.94 52.2997 135.975 52.3341 135.975 52.3856C135.975 52.4337 135.94 52.4715 135.887 52.4715H135.729ZM135.599 52.7843C135.599 52.8015 135.613 52.8186 135.634 52.8186H135.701C135.718 52.8186 135.736 52.8015 135.736 52.7843V52.5884H135.845L135.933 52.7946C135.94 52.8083 135.95 52.8186 135.965 52.8186H136.045C136.07 52.8186 136.088 52.7946 136.077 52.7705C136.045 52.7087 136.014 52.6434 135.982 52.5781C136.035 52.5609 136.116 52.5093 136.116 52.3856C136.116 52.255 136.007 52.1794 135.898 52.1794H135.634C135.617 52.1794 135.599 52.1966 135.599 52.2138V52.7843ZM135.314 52.499C135.314 52.2206 135.546 51.9938 135.831 51.9938C136.116 51.9938 136.348 52.2172 136.348 52.499C136.348 52.7774 136.119 53.0042 135.831 53.0042C135.543 53.0042 135.314 52.7774 135.314 52.499ZM135.191 52.499C135.191 52.8427 135.476 53.1245 135.831 53.1245C136.182 53.1245 136.471 52.8427 136.471 52.499C136.471 52.1553 136.182 51.8735 135.831 51.8735C135.476 51.8735 135.191 52.1553 135.191 52.499Z" fill="#FFC124"/>
</g>
<defs>
<clipPath id="clip0_2043:652">
<rect width="112.941" height="26.25" fill="white" transform="translate(23.5294 31.875)"/>
</clipPath>
</defs>
</svg>
